<svg width="100%" height="100%" viewBox="0 0 100% 100%" class="css-1j8o68f">
  <g xmlns="http://www.w3.org/2000/svg">
    <path
      d="M0 0h5.955v1.93H0zm0 4.183h5.955v1.931H0zM0 8.37h5.955v1.93H0zm0 4.182h5.955v1.932H0zm0 4.185h5.955v1.931H0zm0 4.184h5.955v1.93H0zM9.416 8.369h5.954v1.93H9.416zm0 4.182h5.954v1.932H9.416zm0 4.185h5.954v1.931H9.416zm0 4.184h5.954v1.93H9.416z"
    />
    <path
      d="M9.416 8.369h5.954v1.93H9.416zm0 4.182h5.954v1.932H9.416zm0 4.185h5.954v1.931H9.416zm0 4.184h5.954v1.93H9.416zM18.83 4.183h5.955v1.931H18.83zm0 4.186h5.955v1.93H18.83zm0 4.182h5.955v1.932H18.83zm0 4.185h5.955v1.931H18.83zm0 4.184h5.955v1.93H18.83z"
    />
    <path
      d="M18.83 4.183h5.955v1.931H18.83zm0 4.186h5.955v1.93H18.83zm0 4.182h5.955v1.932H18.83zm0 4.185h5.955v1.931H18.83zm0 4.184h5.955v1.93H18.83zm9.415-4.184h5.954v1.931h-5.954zm0 4.184h5.954v1.93h-5.954z"
    />
    <path
      d="M28.245 16.736h5.954v1.931h-5.954zm0 4.184h5.954v1.93h-5.954zM37.66 4.183h5.955v1.931H37.66zm0 4.186h5.955v1.93H37.66zm0 4.182h5.955v1.932H37.66zm0 4.185h5.955v1.931H37.66zm0 4.184h5.955v1.93H37.66z"
    />
    <path
      d="M37.66 4.183h5.955v1.931H37.66zm0 4.186h5.955v1.93H37.66zm0 4.182h5.955v1.932H37.66zm0 4.185h5.955v1.931H37.66zm0 4.184h5.955v1.93H37.66zM47.076 0h5.954v1.93h-5.954zm0 4.183h5.954v1.931h-5.954zm0 4.186h5.954v1.93h-5.954zm0 4.182h5.954v1.932h-5.954zm0 4.185h5.954v1.931h-5.954zm0 4.184h5.954v1.93h-5.954z"
    />
  </g>
  <path
    d="M73 1.044h3.661v17.858h11.16v3.393h-14.82V1.043zm32.143 8.84V1h-3.75v21.34h3.75V9.884zm23.796-8.84c-1.638 0-3.155.268-4.554.804-1.37.536-2.56 1.28-3.572 2.232-.982.893-1.756 2.024-2.32 3.393-.477 1.16-.745 2.426-.805 3.795v1.339h3.929v-1.34c.06-1.01.223-1.83.491-2.454a7.89 7.89 0 0 1 1.473-2.322c.744-.685 1.518-1.19 2.322-1.518.922-.357 1.934-.536 3.036-.536h5.625V1.044h-5.625zm1.696 10.045v.848h.045a9.198 9.198 0 0 1-.536 2.635c-.386.922-.878 1.68-1.473 2.276a6.83 6.83 0 0 1-2.322 1.518c-.922.357-1.934.536-3.035.536h-5.625v3.393h5.625c1.637 0 3.154-.268 4.553-.804 1.37-.535 2.56-1.28 3.572-2.232 1.041-1.042 1.815-2.173 2.321-3.393.536-1.19.804-2.5.804-3.929v-.848h-3.929zm20.223-6.562h6.742V1.044h-17.233v3.483h10.491zm-3.75 3.482h3.751v14.286h-3.75V8.01zm16.787-6.965h15.893v3.393h-15.893V1.044zm0 17.858h15.848v3.393h-15.848v-3.393zm0-9.018h14.33v3.349h-14.33V9.884zm21.562 12.411h3.706V10.911l-3.706-5.223v16.607zm14.822-21.25v14.687L189.79 1.044h-4.018l15.09 21.251h3.08V1.045h-3.662zm28.26 0H225.1l4.33 21.25h3.75l-2.767-13.08zm14.465 0-2.5 8.884 1.696 6.473 4.107-15.358h-3.303zM237.6 7.561l-.268-1.116-1.428-5.402-1.92 6.34-.09.178-.714 2.5 1.34 5.983.848-2.947 2.188 9.197h3.794l-3.303-13.08zm22.813 2.322V1h-3.75v21.34h3.75V9.884zm22.858-5.357h6.741V1.044H272.78v3.483h10.492zm-3.75 3.482h3.75v14.286h-3.75V8.01zm19.643 1.875V1h-3.75v21.34h3.75V9.884zM309.39 1v8.884h-6.518v3.482h6.518v8.974h3.705V1h-3.705zm41.965 21.295h4.017L347.604 1h-4.063l4.51 12.724zm-16.429 0h3.929l4.643-11.34-1.92-5.09zM369.97 9.884V1h-3.75v21.34h3.75V9.884z"
  />
</svg>
